<svg width="863" height="500" viewBox="0 0 863 500" fill="none" xmlns="http://www.w3.org/2000/svg">
<g filter="url(#filter0_f_1047_11420)">
<ellipse cx="431.5" cy="230.5" rx="323.5" ry="182.5" fill="#1A1A27"/>
</g>
<path d="M192 369.896C193.275 378.4 201.468 386 213.758 386C230.601 386 237.247 374.872 237.247 362.658V322.939H225.593V328.187C224.046 325.201 219.949 322.125 212.848 322.125C200.558 322.125 192 332.077 192 343.839C192 356.324 200.922 365.462 212.848 365.462C219.312 365.462 223.5 362.658 225.32 359.762V363.019C225.32 371.615 221.042 375.414 213.394 375.414C207.659 375.414 203.744 371.886 202.925 367L192 369.896ZM214.942 355.148C208.66 355.148 204.199 350.805 204.199 343.839C204.199 336.963 208.933 332.62 214.942 332.62C220.768 332.62 225.502 336.963 225.502 343.839C225.502 350.715 221.133 355.148 214.942 355.148Z" fill="#6966FF"/>
<path d="M261.692 322.939H249.584V367.453H261.692V331.082C261.965 335.244 265.425 338.41 269.794 338.41C274.346 338.41 277.897 334.882 277.897 330.358C277.897 325.835 274.346 322.306 269.794 322.306C265.425 322.306 261.965 325.563 261.692 329.815V322.939Z" fill="#6966FF"/>
<path d="M282.506 355.329C282.506 362.296 288.332 368.719 297.891 368.719C304.537 368.719 308.816 365.643 311.092 362.115C311.092 363.834 311.274 366.277 311.547 367.453H322.654C322.381 365.915 322.108 362.748 322.108 360.396V338.501C322.108 329.544 316.828 321.582 302.626 321.582C290.608 321.582 284.145 329.273 283.416 336.239L294.159 338.501C294.523 334.611 297.436 331.263 302.717 331.263C307.815 331.263 310.273 333.887 310.273 337.053C310.273 338.591 309.453 339.858 306.904 340.22L295.889 341.848C288.423 342.934 282.506 347.367 282.506 355.329ZM300.441 359.762C296.526 359.762 294.614 357.229 294.614 354.605C294.614 351.167 297.072 349.448 300.167 348.996L310.273 347.458V349.448C310.273 357.32 305.539 359.762 300.441 359.762Z" fill="#6966FF"/>
<path d="M346.241 341.848C346.241 336.691 349.337 332.62 354.617 332.62C360.443 332.62 362.901 336.511 362.901 341.487V367.453H375.01V339.406C375.01 329.634 369.911 321.763 358.805 321.763C353.98 321.763 348.608 323.844 345.877 328.458V322.939H334.133V367.453H346.241V341.848Z" fill="#6966FF"/>
<path d="M402.693 309.64H391.768V315.882C391.768 319.863 389.583 322.939 384.849 322.939H382.573V333.615H390.675V354.334C390.675 362.929 396.138 368.086 404.878 368.086C408.428 368.086 410.613 367.453 411.706 367V357.048C411.068 357.229 409.43 357.41 407.973 357.41C404.513 357.41 402.693 356.143 402.693 352.253V333.615H411.706V322.939H402.693V309.64Z" fill="#6966FF"/>
<path d="M418.434 355.058C418.98 360.124 423.623 368.81 437.097 368.81C448.841 368.81 454.485 361.391 454.485 354.153C454.485 347.639 450.025 342.301 441.194 340.491L434.821 339.134C432.363 338.682 430.724 337.325 430.724 335.153C430.724 332.62 433.273 330.72 436.46 330.72C441.558 330.72 443.47 334.068 443.834 336.691L453.939 334.43C453.393 329.634 449.114 321.582 436.369 321.582C426.718 321.582 419.617 328.187 419.617 336.149C419.617 342.391 423.532 347.548 432.181 349.448L438.098 350.805C441.558 351.529 442.923 353.158 442.923 355.148C442.923 357.501 441.012 359.581 437.006 359.581C431.726 359.581 429.085 356.324 428.812 352.796L418.434 355.058Z" fill="#6966FF"/>
<path fill-rule="evenodd" clip-rule="evenodd" d="M546.683 139.632C546.683 138.801 546.005 138.128 545.169 138.128C544.334 138.128 543.656 138.801 543.656 139.632V139.727C543.656 140.558 544.334 141.231 545.169 141.231C546.005 141.231 546.683 140.558 546.683 139.727V139.632ZM546.683 154.956C546.683 154.125 546.005 153.452 545.169 153.452C544.334 153.452 543.656 154.125 543.656 154.956V155.146C543.656 155.977 544.334 156.65 545.169 156.65C546.005 156.65 546.683 155.977 546.683 155.146V154.956ZM546.683 170.375C546.683 169.544 546.005 168.871 545.169 168.871C544.334 168.871 543.656 169.544 543.656 170.375V170.565C543.656 171.396 544.334 172.069 545.169 172.069C546.005 172.069 546.683 171.396 546.683 170.565V170.375ZM546.683 185.794C546.683 184.963 546.005 184.29 545.169 184.29C544.334 184.29 543.656 184.963 543.656 185.794V185.889C543.656 186.719 544.334 187.393 545.169 187.393C546.005 187.393 546.683 186.719 546.683 185.889V185.794ZM546.683 261.867C546.683 261.037 546.005 260.364 545.169 260.364C544.334 260.364 543.656 261.037 543.656 261.867V261.969C543.656 262.799 544.334 263.473 545.169 263.473C546.005 263.473 546.683 262.799 546.683 261.969V261.867ZM546.683 278.22C546.683 277.39 546.005 276.716 545.169 276.716C544.334 276.716 543.656 277.39 543.656 278.22V278.423C543.656 279.254 544.334 279.927 545.169 279.927C546.005 279.927 546.683 279.254 546.683 278.423V278.22ZM546.683 294.675C546.683 293.844 546.005 293.171 545.169 293.171C544.334 293.171 543.656 293.844 543.656 294.675V294.878C543.656 295.708 544.334 296.382 545.169 296.382C546.005 296.382 546.683 295.708 546.683 294.878V294.675ZM546.683 311.129C546.683 310.299 546.005 309.625 545.169 309.625C544.334 309.625 543.656 310.299 543.656 311.129V311.332C543.656 312.163 544.334 312.836 545.169 312.836C546.005 312.836 546.683 312.163 546.683 311.332V311.129ZM546.683 327.584C546.683 326.753 546.005 326.08 545.169 326.08C544.334 326.08 543.656 326.753 543.656 327.584V327.685C543.656 328.516 544.334 329.189 545.169 329.189C546.005 329.189 546.683 328.516 546.683 327.685V327.584ZM648.989 226.013C648.989 226.844 648.312 227.517 647.476 227.517H647.384C646.549 227.517 645.871 226.844 645.871 226.013C645.871 225.183 646.549 224.51 647.384 224.51H647.476C648.312 224.51 648.989 225.183 648.989 226.013ZM634.249 226.013C634.249 226.844 633.572 227.517 632.736 227.517H632.553C631.717 227.517 631.04 226.844 631.04 226.013C631.04 225.183 631.717 224.51 632.553 224.51H632.736C633.572 224.51 634.249 225.183 634.249 226.013ZM619.418 226.013C619.418 226.844 618.74 227.517 617.905 227.517H617.721C616.886 227.517 616.208 226.844 616.208 226.013C616.208 225.183 616.886 224.51 617.721 224.51H617.905C618.74 224.51 619.418 225.183 619.418 226.013ZM604.586 226.013C604.586 226.844 603.909 227.517 603.073 227.517H602.89C602.054 227.517 601.377 226.844 601.377 226.013C601.377 225.183 602.054 224.51 602.89 224.51H603.073C603.909 224.51 604.586 225.183 604.586 226.013ZM589.755 226.013C589.755 226.844 589.077 227.517 588.242 227.517H588.059C587.223 227.517 586.545 226.844 586.545 226.013C586.545 225.183 587.223 224.51 588.059 224.51H588.242C589.077 224.51 589.755 225.183 589.755 226.013ZM574.923 226.013C574.923 226.844 574.246 227.517 573.41 227.517H573.319C572.483 227.517 571.805 226.844 571.805 226.013C571.805 225.183 572.483 224.51 573.319 224.51H573.41C574.246 224.51 574.923 225.183 574.923 226.013ZM517.667 227.517C518.503 227.517 519.181 226.844 519.181 226.013C519.181 225.183 518.503 224.51 517.667 224.51H517.575C516.739 224.51 516.062 225.183 516.062 226.013C516.062 226.844 516.739 227.517 517.575 227.517H517.667ZM502.799 227.517C503.634 227.517 504.312 226.844 504.312 226.013C504.312 225.183 503.634 224.51 502.799 224.51H502.614C501.778 224.51 501.101 225.183 501.101 226.013C501.101 226.844 501.778 227.517 502.614 227.517H502.799ZM487.838 227.517C488.673 227.517 489.351 226.844 489.351 226.013C489.351 225.183 488.673 224.51 487.838 224.51H487.653C486.817 224.51 486.14 225.183 486.14 226.013C486.14 226.844 486.817 227.517 487.653 227.517H487.838ZM472.877 227.517C473.712 227.517 474.39 226.844 474.39 226.013C474.39 225.183 473.712 224.51 472.877 224.51H472.692C471.856 224.51 471.179 225.183 471.179 226.013C471.179 226.844 471.856 227.517 472.692 227.517H472.877ZM457.915 227.517C458.751 227.517 459.429 226.844 459.429 226.013C459.429 225.183 458.751 224.51 457.915 224.51H457.731C456.895 224.51 456.218 225.183 456.218 226.013C456.218 226.844 456.895 227.517 457.731 227.517H457.915Z" fill="#55555E"/>
<path fill-rule="evenodd" clip-rule="evenodd" d="M545.068 122.838H545.27C546.106 122.838 546.783 123.512 546.782 124.343C546.781 125.173 546.103 125.846 545.267 125.845H545.071C544.235 125.846 543.557 125.173 543.556 124.343C543.555 123.512 544.232 122.838 545.068 122.838ZM530.766 125.331C530.895 126.151 530.33 126.92 529.504 127.048L529.31 127.079C528.485 127.208 527.71 126.649 527.58 125.828C527.449 125.008 528.012 124.238 528.838 124.108L529.037 124.077C529.863 123.949 530.637 124.51 530.766 125.331ZM559.572 125.331C559.701 124.51 560.475 123.949 561.301 124.077L561.5 124.108C562.325 124.238 562.889 125.008 562.758 125.828C562.628 126.649 561.853 127.208 561.027 127.079L560.834 127.048C560.008 126.92 559.443 126.151 559.572 125.331ZM575.235 128.795C575.492 128.005 576.345 127.571 577.14 127.827L577.332 127.889C578.126 128.146 578.561 128.995 578.302 129.785C578.043 130.574 577.189 131.006 576.394 130.749L576.208 130.689C575.413 130.433 574.977 129.585 575.235 128.795ZM515.103 128.795C515.361 129.585 514.925 130.433 514.13 130.689L513.944 130.749C513.149 131.006 512.295 130.574 512.036 129.785C511.777 128.995 512.211 128.146 513.006 127.889L513.198 127.827C513.993 127.571 514.846 128.005 515.103 128.795ZM590.151 134.667C590.53 133.927 591.441 133.633 592.186 134.01L592.365 134.101C593.109 134.479 593.403 135.385 593.023 136.125C592.642 136.864 591.73 137.157 590.986 136.778L590.812 136.69C590.068 136.313 589.771 135.408 590.151 134.667ZM500.187 134.667C500.566 135.408 500.27 136.313 499.526 136.69L499.352 136.778C498.608 137.157 497.696 136.864 497.315 136.125C496.934 135.385 497.229 134.479 497.973 134.101L498.152 134.01C498.897 133.633 499.808 133.927 500.187 134.667ZM486.385 142.795C486.876 143.467 486.726 144.407 486.05 144.895L485.892 145.01C485.217 145.499 484.27 145.352 483.778 144.681C483.285 144.01 483.433 143.069 484.109 142.58L484.271 142.462C484.947 141.974 485.894 142.123 486.385 142.795ZM603.953 142.795C604.444 142.123 605.39 141.974 606.067 142.462L606.229 142.58C606.904 143.069 607.053 144.01 606.56 144.681C606.068 145.352 605.121 145.499 604.446 145.01L604.288 144.895C603.612 144.407 603.462 143.467 603.953 142.795ZM474.027 152.964C474.618 153.552 474.617 154.504 474.025 155.091L473.887 155.228C473.297 155.816 472.339 155.817 471.747 155.23C471.156 154.643 471.155 153.691 471.745 153.103L471.887 152.962C472.479 152.375 473.437 152.376 474.027 152.964ZM616.31 152.964C616.901 152.376 617.859 152.375 618.45 152.962L618.593 153.103C619.183 153.691 619.182 154.643 618.59 155.23C617.999 155.817 617.041 155.816 616.451 155.228L616.312 155.091C615.721 154.504 615.72 153.552 616.31 152.964ZM463.412 164.92C464.087 165.409 464.236 166.35 463.743 167.021L463.628 167.178C463.137 167.85 462.191 167.999 461.515 167.511C460.839 167.023 460.689 166.082 461.18 165.41L461.298 165.249C461.79 164.578 462.737 164.43 463.412 164.92ZM626.926 164.92C627.601 164.43 628.547 164.578 629.04 165.249L629.158 165.41C629.649 166.082 629.499 167.023 628.823 167.511C628.147 167.999 627.201 167.85 626.709 167.178L626.595 167.021C626.102 166.35 626.25 165.409 626.926 164.92ZM635.535 178.373C636.279 177.995 637.191 178.288 637.571 179.027L637.663 179.205C638.042 179.945 637.746 180.85 637.001 181.227C636.257 181.604 635.345 181.31 634.966 180.57L634.877 180.397C634.497 179.658 634.791 178.752 635.535 178.373ZM641.915 193.003C642.709 192.745 643.563 193.177 643.822 193.967L643.884 194.157C644.142 194.947 643.706 195.795 642.911 196.051C642.116 196.307 641.262 195.873 641.005 195.083L640.945 194.898C640.686 194.109 641.12 193.26 641.915 193.003ZM645.896 208.45C646.721 208.32 647.496 208.88 647.627 209.7L647.658 209.898C647.787 210.719 647.222 211.488 646.396 211.616C645.571 211.744 644.797 211.183 644.668 210.362L644.638 210.17C644.507 209.35 645.07 208.58 645.896 208.45ZM647.39 224.327C648.226 224.326 648.904 224.999 648.905 225.829V226.03C648.904 226.861 648.226 227.534 647.39 227.533C646.555 227.532 645.878 226.858 645.879 226.028V225.832C645.878 225.002 646.555 224.328 647.39 224.327ZM646.396 240.244C647.222 240.372 647.787 241.141 647.658 241.962L647.627 242.16C647.496 242.98 646.721 243.54 645.896 243.41C645.07 243.28 644.507 242.51 644.638 241.69L644.668 241.498C644.797 240.677 645.571 240.116 646.396 240.244ZM642.911 255.809C643.706 256.065 644.142 256.913 643.884 257.703L643.822 257.893C643.563 258.683 642.709 259.114 641.915 258.857C641.12 258.6 640.686 257.751 640.945 256.962L641.005 256.777C641.262 255.987 642.116 255.553 642.911 255.809ZM453.336 270.633C454.081 270.256 454.992 270.55 455.372 271.29L455.46 271.463C455.841 272.202 455.547 273.108 454.803 273.487C454.059 273.865 453.147 273.572 452.766 272.833L452.675 272.655C452.296 271.915 452.592 271.009 453.336 270.633ZM637.001 270.633C637.746 271.009 638.042 271.915 637.663 272.655L637.571 272.833C637.191 273.572 636.279 273.865 635.535 273.487C634.791 273.108 634.497 272.202 634.877 271.463L634.966 271.29C635.345 270.55 636.257 270.256 637.001 270.633ZM461.515 284.349C462.191 283.861 463.137 284.01 463.628 284.682L463.743 284.839C464.236 285.51 464.087 286.451 463.412 286.94C462.737 287.43 461.79 287.282 461.298 286.611L461.18 286.45C460.689 285.778 460.839 284.837 461.515 284.349ZM628.823 284.349C629.499 284.837 629.649 285.778 629.158 286.45L629.04 286.611C628.547 287.282 627.601 287.43 626.926 286.94C626.25 286.451 626.102 285.51 626.595 284.839L626.709 284.682C627.201 284.01 628.147 283.861 628.823 284.349ZM471.747 296.63C472.339 296.043 473.297 296.044 473.887 296.632L474.025 296.769C474.617 297.356 474.618 298.308 474.027 298.896C473.437 299.484 472.479 299.485 471.887 298.898L471.745 298.757C471.155 298.169 471.156 297.217 471.747 296.63ZM618.59 296.63C619.182 297.217 619.183 298.169 618.593 298.757L618.45 298.898C617.859 299.485 616.901 299.484 616.31 298.896C615.72 298.308 615.721 297.356 616.312 296.769L616.451 296.632C617.041 296.044 617.999 296.043 618.59 296.63ZM483.778 307.179C484.27 306.508 485.217 306.361 485.892 306.85L486.05 306.964C486.726 307.453 486.876 308.393 486.385 309.065C485.894 309.737 484.947 309.886 484.271 309.398L484.109 309.28C483.433 308.791 483.285 307.85 483.778 307.179ZM606.56 307.179C607.053 307.85 606.904 308.791 606.229 309.28L606.067 309.398C605.39 309.886 604.444 309.737 603.953 309.065C603.462 308.393 603.612 307.453 604.288 306.964L604.446 306.85C605.121 306.361 606.068 306.508 606.56 307.179ZM497.315 315.735C497.696 314.996 498.608 314.703 499.352 315.082L499.526 315.17C500.27 315.547 500.566 316.452 500.187 317.192C499.808 317.933 498.897 318.227 498.152 317.85L497.973 317.759C497.229 317.381 496.934 316.475 497.315 315.735ZM593.023 315.735C593.403 316.475 593.109 317.381 592.365 317.759L592.186 317.85C591.441 318.227 590.53 317.933 590.151 317.192C589.771 316.452 590.068 315.547 590.812 315.17L590.986 315.082C591.73 314.703 592.642 314.996 593.023 315.735ZM512.036 322.075C512.295 321.286 513.149 320.854 513.944 321.111L514.13 321.171C514.925 321.427 515.361 322.275 515.103 323.065C514.846 323.855 513.993 324.289 513.198 324.033L513.006 323.971C512.211 323.714 511.777 322.865 512.036 322.075ZM578.302 322.075C578.561 322.865 578.126 323.714 577.332 323.971L577.14 324.033C576.345 324.289 575.492 323.855 575.235 323.065C574.977 322.275 575.413 321.427 576.208 321.171L576.394 321.111C577.189 320.854 578.043 321.286 578.302 322.075ZM527.58 326.032C527.71 325.211 528.485 324.652 529.31 324.781L529.504 324.812C530.33 324.94 530.895 325.709 530.766 326.529C530.637 327.35 529.863 327.911 529.037 327.783L528.838 327.752C528.012 327.622 527.449 326.852 527.58 326.032ZM562.758 326.032C562.889 326.852 562.325 327.622 561.5 327.752L561.301 327.783C560.475 327.911 559.701 327.35 559.572 326.529C559.443 325.709 560.008 324.94 560.834 324.812L561.027 324.781C561.853 324.652 562.628 325.211 562.758 326.032ZM543.556 327.517C543.557 326.687 544.235 326.014 545.071 326.015H545.267C546.103 326.014 546.781 326.687 546.782 327.517C546.783 328.348 546.106 329.022 545.27 329.022H545.068C544.232 329.022 543.555 328.348 543.556 327.517Z" fill="white"/>
<path d="M548.532 124.341C548.532 126.187 547.026 127.683 545.169 127.683C543.312 127.683 541.807 126.187 541.807 124.341C541.807 122.496 543.312 121 545.169 121C547.026 121 548.532 122.496 548.532 124.341Z" fill="#6966FF"/>
<path d="M548.532 327.518C548.532 329.364 547.026 330.86 545.169 330.86C543.312 330.86 541.807 329.364 541.807 327.518C541.807 325.673 543.312 324.177 545.169 324.177C547.026 324.177 548.532 325.673 548.532 327.518Z" fill="#6966FF"/>
<path d="M647.392 229.272C645.534 229.272 644.029 227.776 644.029 225.93C644.029 224.085 645.534 222.589 647.392 222.589C649.249 222.589 650.754 224.085 650.754 225.93C650.754 227.776 649.249 229.272 647.392 229.272Z" fill="#6966FF"/>
<path fill-rule="evenodd" clip-rule="evenodd" d="M574.542 163.291H602.429L512.642 288.261H485.218L574.542 163.291ZM541.781 200.115L515.499 163.291H487.504L528.069 220.202L541.781 200.115ZM534.906 200.186L527.968 210.348L498.428 168.905H512.58L534.906 200.186ZM496.16 282.647H509.734L591.454 168.905H577.458L496.16 282.647Z" fill="white"/>
<path fill-rule="evenodd" clip-rule="evenodd" d="M580.52 282.75C580.614 282.879 580.765 282.956 580.925 282.956H594.232L562.819 238.628C562.62 238.346 562.202 238.346 562.003 238.629L555.574 247.755C555.451 247.93 555.453 248.164 555.578 248.337L580.52 282.75ZM548.44 248.094L577.777 288.57H605.12L562.396 228.28L548.44 248.094Z" fill="url(#paint0_linear_1047_11420)"/>
<path fill-rule="evenodd" clip-rule="evenodd" d="M287.887 163.291H263.917V200.476C256.995 196.796 249.047 194.703 240.595 194.703C213.762 194.703 192.009 215.798 192.009 241.821C192.009 267.844 213.762 288.94 240.595 288.94C249.047 288.94 256.995 286.847 263.917 283.167V287.818H287.887V163.291ZM267.858 241.573C267.858 256.312 255.537 268.26 240.34 268.26C225.142 268.26 212.821 256.312 212.821 241.573C212.821 226.834 225.142 214.886 240.34 214.886C255.537 214.886 267.858 226.834 267.858 241.573ZM385.008 163.291L295.877 287.818H323.82L412.865 163.291H385.008ZM454.533 163.291H478.502V287.818H454.533V283.167C447.61 286.847 439.662 288.94 431.211 288.94C404.377 288.94 382.624 267.844 382.624 241.821C382.624 215.798 404.377 194.703 431.211 194.703C439.662 194.703 447.61 196.796 454.533 200.476V163.291ZM430.955 268.26C446.153 268.26 458.473 256.312 458.473 241.573C458.473 226.834 446.153 214.886 430.955 214.886C415.757 214.886 403.437 226.834 403.437 241.573C403.437 256.312 415.757 268.26 430.955 268.26ZM351.806 201.096L323.842 163.291H294.736L336.397 222.223L351.806 201.096Z" fill="white"/>
<defs>
<filter id="filter0_f_1047_11420" x="0" y="-60" width="863" height="581" filterUnits="userSpaceOnUse" color-interpolation-filters="sRGB">
<feFlood flood-opacity="0" result="BackgroundImageFix"/>
<feBlend mode="normal" in="SourceGraphic" in2="BackgroundImageFix" result="shape"/>
<feGaussianBlur stdDeviation="54" result="effect1_foregroundBlur_1047_11420"/>
</filter>
<linearGradient id="paint0_linear_1047_11420" x1="583.937" y1="279.081" x2="539.115" y2="217.11" gradientUnits="userSpaceOnUse">
<stop stop-color="#6966FF"/>
<stop offset="1" stop-color="#6966FF" stop-opacity="0.36"/>
</linearGradient>
</defs>
</svg>
